<svg xmlns="http://www.w3.org/2000/svg" xml:space="preserve" width="1500" height="1500" stroke="#000" data-id="lg_rJu6QOLxQ7wVSW9M8H" data-version="1"><path fill="#f0f0f0" stroke="transparent" d="M0 0h1500v1500H0z"/><g data-padding="20"><g fill="#404040" stroke="none"><path d="M1142.31 949.18a11.03 11.03 0 0 1-9.413-5.936l-247.214-495.36-125.26 249.843a10.6 10.6 0 1 1-18.997-9.414L876.27 419.39a11.03 11.03 0 0 1 9.413-5.937c3.986.085 7.633 2.375 9.499 5.937l256.627 514.44a10.6 10.6 0 0 1-9.499 15.266"/><path d="M357.766 949.18a10.6 10.6 0 0 1-9.499-15.35l257.815-514.44a11.03 11.03 0 0 1 9.498-5.937c3.986.085 7.633 2.375 9.498 5.937l181.318 363.483a10.6 10.6 0 1 1-18.997 9.414L615.58 447.8l-248.4 495.529a11.03 11.03 0 0 1-9.414 5.852M885.768 799.48a5.682 5.682 0 0 1-5.597-6.7 135.7 135.7 0 0 0 2.12-23.576 5.682 5.682 0 0 1 11.28 0 144 144 0 0 1-2.29 25.612 5.94 5.94 0 0 1-5.513 4.664"/><path d="M749.66 912.883a144 144 0 0 1-28.41-2.799 5.682 5.682 0 0 1 2.205-11.025 135.7 135.7 0 0 0 52.41 0 5.682 5.682 0 1 1 2.206 11.025 144 144 0 0 1-28.41 2.799m-77.684-23.83a8.5 8.5 0 0 1-3.223-.934 144.2 144.2 0 0 1-39.774-40.622 5.682 5.682 0 1 1 9.498-6.107 135.7 135.7 0 0 0 36.637 37.316 5.682 5.682 0 0 1-3.138 10.346m155.197 0a5.682 5.682 0 0 1-3.138-10.346 135.7 135.7 0 0 0 36.637-37.316 5.682 5.682 0 0 1 9.498 6.107 144.2 144.2 0 0 1-39.774 40.622 8.5 8.5 0 0 1-3.138.933M613.63 799.48a5.94 5.94 0 0 1-5.513-4.664 144 144 0 0 1-2.29-25.612 5.682 5.682 0 0 1 11.28 0 135.7 135.7 0 0 0 2.12 23.577 5.68 5.68 0 0 1-4.58 6.614Zm-2.198-46.304a5.94 5.94 0 0 1-4.58-2.205c-2.204-2.969-55.124-72.935-55.124-104.313a59.704 59.704 0 0 1 119.324 0c0 31.378-52.92 101.344-55.125 104.313a5.94 5.94 0 0 1-4.58 2.205m0-154.859a48.34 48.34 0 0 0-48.425 48.34c0 20.863 31.633 68.44 48.34 91.423 16.792-22.983 48.425-70.56 48.425-91.422a48.34 48.34 0 0 0-48.34-48.34"/><path d="M611.51 682.377a37.654 37.654 0 1 1 0-75.309 37.654 37.654 0 0 1 0 75.309m0-64.114a26.375 26.375 0 1 0-.17 52.58 26.375 26.375 0 0 0 .17-52.496M947.6 734.873H828.022a5.68 5.68 0 0 1-5.682-5.683v-62.248a5.68 5.68 0 0 1 5.682-5.682H947.6a5.68 5.68 0 0 1 5.682 5.682v62.248a5.68 5.68 0 0 1-5.682 5.683m-113.896-11.28h108.3V672.54h-108.3Z"/><path d="M849.147 667.096h11.28v62.333h-11.28Zm33.067-.154h11.28v60.892h-11.28Zm32.905 2.714h11.28v58.178h-11.28Z"/><path d="M959.635 672.54H816.226a5.682 5.682 0 0 1-2.46-10.686l71.748-35.28a5.94 5.94 0 0 1 5.003 0l71.578 35.28a5.682 5.682 0 0 1-2.545 10.685m-119.154-11.28h94.984l-47.492-23.321Zm116.109 91.917H819.117a5.68 5.68 0 0 1-5.682-5.683v-18.148c0-3.138 2.545-5.598 5.682-5.598h137.388c3.138 0 5.597 2.545 5.682 5.598v18.148a5.68 5.68 0 0 1-5.682 5.683M824.8 741.896h126.109v-6.87h-126.11Zm317.434 344.657H357.766c-5.852 0-10.601-4.75-10.601-10.601V938.734c0-2.544.933-4.919 2.544-6.87 61.57-71.577 121.783-105.16 178.944-99.818 53.428 5.089 86.333 41.725 118.22 77.175 29.429 32.65 57.16 63.52 98.208 63.945h.848c36.297 0 60.213-23.746 87.945-51.309 29.089-28.834 62.079-61.655 115.507-69.966 61.91-9.583 129.162 16.962 199.806 78.87 2.29 2.036 3.562 4.92 3.647 7.973v137.218c0 5.852-4.75 10.6-10.601 10.6m-773.866-21.201h763.265V943.653c-64.453-55.38-124.667-79.21-179.028-70.73-46.644 7.209-75.733 36.128-103.889 64.03-28.326 28.24-57.669 57.5-102.701 57.5h-1.188c-50.29-.51-82.517-36.383-113.642-70.985-30.53-33.922-59.365-65.98-104.567-70.22-49.103-4.664-102.362 25.442-158.25 89.557Z"/></g><path fill="transparent" stroke="transparent" stroke-width="9.524" d="M250 335.714h1000v828.572H250z"/></g></svg>